<?xml version="1.0" encoding="UTF-8"?>
<!DOCTYPE svg PUBLIC "-//W3C//DTD SVG 1.1//EN" "http://www.w3.org/Graphics/SVG/1.1/DTD/svg11.dtd">
<svg xmlns="http://www.w3.org/2000/svg" version="1.1" width="512px" height="512px" style="shape-rendering:geometricPrecision; text-rendering:geometricPrecision; image-rendering:optimizeQuality; fill-rule:evenodd; clip-rule:evenodd" xmlns:xlink="http://www.w3.org/1999/xlink">
<g><path style="opacity:0.987" fill="#020104" d="M 103.5,-0.5 C 109.833,-0.5 116.167,-0.5 122.5,-0.5C 139.668,4.50624 150.168,15.8396 154,33.5C 155.132,81.1423 155.966,128.809 156.5,176.5C 210.187,143.74 266.52,138.574 325.5,161C 377.497,183.996 412.33,222.496 430,276.5C 449.334,352.705 430.167,417.205 372.5,470C 343.747,493.084 311.08,506.917 274.5,511.5C 261.833,511.5 249.167,511.5 236.5,511.5C 168.647,501.466 119.481,465.8 89,404.5C 81.1824,385.896 76.1824,366.563 74,346.5C 73.3333,242.5 73.3333,138.5 74,34.5C 76.5023,16.5087 86.3356,4.84207 103.5,-0.5 Z M 245.5,229.5 C 297.163,228.381 332.33,251.714 351,299.5C 362.103,341.18 351.937,376.68 320.5,406C 284.856,433.128 246.856,436.795 206.5,417C 169.978,394.46 153.145,361.627 156,318.5C 165.107,267.893 194.94,238.226 245.5,229.5 Z"/></g>
</svg>
