<?xml version="1.0" encoding="UTF-8"?>
<!DOCTYPE svg PUBLIC "-//W3C//DTD SVG 1.1//EN" "http://www.w3.org/Graphics/SVG/1.1/DTD/svg11.dtd">
<svg xmlns="http://www.w3.org/2000/svg" version="1.1" width="512px" height="512px" style="shape-rendering:geometricPrecision; text-rendering:geometricPrecision; image-rendering:optimizeQuality; fill-rule:evenodd; clip-rule:evenodd" xmlns:xlink="http://www.w3.org/1999/xlink">
<g><path style="opacity:0.983" fill="#000000" d="M 218.5,74.5 C 234.839,74.0128 246.006,81.3462 252,96.5C 274.869,170.106 297.535,243.773 320,317.5C 320.667,348.833 320.667,380.167 320,411.5C 316.929,425.404 308.429,433.738 294.5,436.5C 278.579,433.079 267.746,423.746 262,408.5C 238.333,331.167 214.667,253.833 191,176.5C 190.036,150.118 190.37,123.784 192,97.5C 196.729,84.927 205.563,77.2603 218.5,74.5 Z"/></g>
<g><path style="opacity:0.983" fill="#000000" d="M 174.5,75.5 C 182.84,75.3336 191.173,75.5003 199.5,76C 190.91,82.3349 185.743,90.8349 184,101.5C 183.667,201.833 183.333,302.167 183,402.5C 178.014,423.984 164.514,435.651 142.5,437.5C 120.486,435.651 106.986,423.984 102,402.5C 101.333,319.167 101.333,235.833 102,152.5C 108.536,110.133 132.703,84.4666 174.5,75.5 Z"/></g>
<g><path style="opacity:0.982" fill="#000000" d="M 359.5,75.5 C 381.832,72.5779 397.665,81.2446 407,101.5C 407.794,104.471 408.461,107.471 409,110.5C 409.978,196.19 409.645,281.857 408,367.5C 398.937,405.231 375.437,428.064 337.5,436C 328.856,437.176 320.19,437.51 311.5,437C 319.598,430.307 324.765,421.807 327,411.5C 327.333,311.167 327.667,210.833 328,110.5C 331.38,92.2928 341.88,80.6262 359.5,75.5 Z"/></g>
</svg>
