<?xml version="1.0" encoding="UTF-8"?>
<!DOCTYPE svg PUBLIC "-//W3C//DTD SVG 1.1//EN" "http://www.w3.org/Graphics/SVG/1.1/DTD/svg11.dtd">
<svg xmlns="http://www.w3.org/2000/svg" version="1.1" width="512px" height="512px" style="shape-rendering:geometricPrecision; text-rendering:geometricPrecision; image-rendering:optimizeQuality; fill-rule:evenodd; clip-rule:evenodd" xmlns:xlink="http://www.w3.org/1999/xlink">
<g><path style="opacity:0.974" fill="#000000" d="M 511.5,206.5 C 511.5,239.167 511.5,271.833 511.5,304.5C 510.286,320.04 508.786,335.707 507,351.5C 505.336,382.693 491.503,406.527 465.5,423C 447.773,431.18 429.106,435.513 409.5,436C 304.138,443.606 198.805,443.272 93.5,435C 40.4307,431.927 10.5974,404.094 4,351.5C 2.2168,336.04 0.716799,320.707 -0.5,305.5C -0.5,273.167 -0.5,240.833 -0.5,208.5C 0.713549,192.96 2.21355,177.293 4,161.5C 6.12654,129.722 20.6265,105.556 47.5,89C 64.6955,81.5763 82.6955,77.5763 101.5,77C 203.5,69.6667 305.5,69.6667 407.5,77C 424.225,77.9601 440.559,80.9601 456.5,86C 485.679,99.5336 502.179,122.367 506,154.5C 508.415,171.926 510.249,189.259 511.5,206.5 Z M 253.5,111.5 C 307.576,112.114 361.576,114.614 415.5,119C 428.269,119.437 439.936,123.104 450.5,130C 457.732,136.627 462.232,144.794 464,154.5C 466.522,166.714 468.188,179.048 469,191.5C 471.904,241.08 471.237,290.747 467,340.5C 465.939,351.143 463.605,361.476 460,371.5C 454.479,381.357 446.313,387.857 435.5,391C 422.612,393.522 409.612,395.189 396.5,396C 296.482,403.154 196.482,402.487 96.5,394C 61.9152,393.081 44.4152,375.248 44,340.5C 38.8407,284.556 38.8407,228.556 44,172.5C 44.7328,159.223 48.3995,146.89 55,135.5C 65.3484,124.414 78.1817,118.914 93.5,119C 146.904,114.661 200.238,112.161 253.5,111.5 Z"/></g>
<g><path style="opacity:0.982" fill="#000000" d="M 204.5,175.5 C 251.672,201.682 298.338,228.682 344.5,256.5C 298.448,283.864 252.115,310.864 205.5,337.5C 204.5,283.504 204.167,229.504 204.5,175.5 Z"/></g>
</svg>
